<?xml version="1.0" standalone="no"?>
<!DOCTYPE svg PUBLIC "-//W3C//DTD SVG 20010904//EN"
 "http://www.w3.org/TR/2001/REC-SVG-20010904/DTD/svg10.dtd">
<svg version="1.0" xmlns="http://www.w3.org/2000/svg"
 width="1084.000000pt" height="1084.000000pt" viewBox="0 0 1084.000000 1084.000000"
 preserveAspectRatio="xMidYMid meet">
<metadata>
Created by potrace 1.14, written by Peter Selinger 2001-2017
</metadata>
<g transform="translate(0.000000,1084.000000) scale(0.100000,-0.100000)"
fill="#000000" stroke="none">
<path d="M5009 10836 c-2 -2 -46 -7 -98 -11 -51 -3 -98 -8 -105 -10 -6 -2 -38
-6 -71 -9 -33 -4 -69 -8 -80 -10 -11 -2 -56 -9 -100 -16 -44 -7 -89 -14 -100
-17 -11 -2 -31 -6 -45 -8 -67 -10 -279 -59 -395 -90 -71 -20 -137 -37 -147
-39 -62 -16 -404 -136 -488 -173 -19 -8 -46 -20 -60 -25 -14 -6 -38 -17 -55
-24 -16 -7 -48 -20 -70 -30 -117 -49 -416 -205 -540 -281 -11 -7 -51 -31 -90
-54 -109 -66 -425 -285 -445 -308 -3 -3 -34 -28 -70 -56 -59 -45 -124 -99
-235 -195 -69 -60 -408 -401 -476 -480 -539 -618 -927 -1339 -1144 -2123 -37
-132 -91 -363 -109 -467 -2 -14 -9 -52 -15 -85 -6 -33 -13 -82 -16 -110 -4
-27 -8 -59 -10 -71 -2 -11 -6 -52 -10 -90 -4 -38 -9 -80 -11 -94 -26 -213 -26
-944 1 -1075 3 -11 7 -47 10 -79 3 -33 8 -73 10 -90 18 -117 35 -229 44 -276
6 -30 13 -68 16 -85 3 -16 8 -41 11 -55 3 -14 8 -36 10 -49 24 -127 125 -470
195 -664 91 -250 247 -597 354 -782 281 -490 540 -832 905 -1195 203 -202 234
-231 385 -355 525 -432 1080 -741 1715 -957 119 -40 256 -82 340 -104 106 -27
161 -40 205 -49 17 -3 38 -8 47 -11 9 -3 27 -7 40 -9 31 -7 176 -33 213 -40
48 -8 245 -34 305 -40 30 -3 71 -8 90 -10 207 -24 780 -25 980 0 19 2 67 7
105 11 115 11 207 22 241 29 12 3 39 7 60 10 158 24 528 110 674 156 374 120
604 213 908 369 656 336 1232 798 1701 1365 23 28 47 57 55 65 34 37 212 281
269 368 119 181 139 214 207 330 245 426 448 935 559 1402 29 122 65 294 75
355 2 17 8 50 12 75 5 25 9 50 10 55 3 27 17 132 19 146 2 9 6 52 10 95 4 43
8 90 11 104 22 133 21 759 -1 935 -2 17 -7 59 -10 95 -3 36 -8 74 -10 85 -2
11 -7 47 -10 80 -4 33 -8 69 -10 80 -3 11 -7 36 -10 55 -13 90 -56 305 -81
405 -3 11 -7 29 -9 41 -12 57 -89 315 -128 429 -171 501 -415 979 -720 1405
-72 100 -265 344 -328 414 -244 272 -509 525 -721 688 -164 125 -391 288 -403
288 -2 0 -33 20 -68 45 -36 25 -67 45 -71 45 -3 0 -29 15 -58 34 -165 104
-537 287 -776 380 -206 80 -512 177 -717 225 -27 7 -66 16 -85 21 -42 10 -227
46 -290 55 -25 4 -52 9 -60 10 -8 2 -37 6 -65 9 -27 4 -63 9 -80 12 -149 23
-341 32 -696 33 -218 0 -398 -1 -400 -3z"/>
</g>
</svg>
