<svg xmlns="http://www.w3.org/2000/svg" width="146" height="44" viewBox="0 0 1500 717"><g><path d="M647.763,338.488c-57.79,0-102.15-50.465-102.15-110.696,0-72.034,35-118.836,98.894-118.836,21.976,0,45.987,15.465,54.535,34.592V40.586h16.685c26.046,0,37.441,15.057,37.441,37.034V232.268c0,63.895-30.115,106.22-105.404,106.22Zm-2.849-183.544c-27.675,0-45.581,26.86-45.581,62.267,0,45.58,23.604,75.29,54.941,75.29,30.522,0,43.952-22.791,43.952-62.673,0-54.941-24.011-74.884-53.312-74.884Z" style="fill:#fff;"/><path d="M888.279,247.326h-35.814c4.07,27.675,29.302,45.175,61.454,45.175,22.79,0,49.65-4.478,67.15-20.756h2.035v17.092c0,28.081-19.127,49.651-79.36,49.651-54.533,0-107.847-43.139-107.847-110.29,0-73.255,44.767-119.242,107.441-119.242,45.581,0,87.906,32.557,87.906,85.057,0,40.29-30.524,53.312-102.965,53.312Zm10.175-92.789c-26.454,0-44.767,21.569-45.989,46.802l-.406,7.326h24.419c51.685,0,63.487-5.699,63.487-21.164,0-21.976-16.279-32.964-41.511-32.964Z" style="fill:#fff;"/><path d="M1192.288,209.479c-14.651,40.29-39.07,93.196-63.489,126.567h-10.581c-16.279,0-24.825-5.697-35.812-21.976-29.71-45.174-67.151-140.812-72.035-200.229h29.302c18.72,0,30.522,14.244,32.557,26.046,7.732,40.697,18.721,83.022,41.919,128.196,20.755-41.104,39.882-99.301,48.022-154.242h23.197c18.72,0,25.639,8.139,25.639,26.046,0,6.511-5.29,32.965-18.72,69.592Z" style="fill:#fff;"/></g><g><path d="M551.889,671.752h-107.033c-25.232,0-37.442-11.802-37.442-28.895,0-16.686,12.616-37.849,33.372-60.232l55.348-60.231c6.512-7.326,15.058-17.5,18.721-24.825h-107.848v-16.686c0-16.279,11.802-28.895,36.22-28.895h99.708c25.639,0,34.186,15.465,34.186,28.081,0,17.092-8.954,37.441-28.081,58.196l-54.941,59.419c-7.732,8.546-15.872,18.314-20.756,27.267h106.626v21.162c0,13.43-14.244,25.639-28.081,25.639Z" style="fill:#fff;"/><path d="M656.477,436.523c-17.5,0-31.745-14.651-31.745-32.151s14.245-31.744,31.745-31.744,32.15,14.244,32.15,31.744-14.651,32.151-32.15,32.151Zm38.661,237.264c-42.325,0-65.522-24.011-65.522-68.371v-148.544h15.465c24.419,0,39.07,13.022,39.07,40.697v102.556c0,21.976,9.36,28.895,33.371,28.895h10.175v11.802c0,23.605-9.361,32.965-32.559,32.965Z" style="fill:#fff;"/><path d="M829.844,673.787c-45.174,0-69.592-24.011-69.592-68.371v-226.683h15.465c27.267,0,39.07,15.871,39.07,36.627v184.764c0,21.976,11.395,28.895,37.035,28.895h14.65v11.802c0,23.605-12.616,32.965-36.627,32.965Z" style="fill:#fff;"/><path d="M924.664,436.523c-17.5,0-31.745-14.651-31.745-32.151s14.245-31.744,31.745-31.744,32.15,14.244,32.15,31.744-14.651,32.151-32.15,32.151Zm38.661,237.264c-42.325,0-65.522-24.011-65.522-68.371v-148.544h15.465c24.419,0,39.07,13.022,39.07,40.697v102.556c0,21.976,9.36,28.895,33.371,28.895h10.175v11.802c0,23.605-9.361,32.965-32.559,32.965Z" style="fill:#fff;"/><path d="M1115.53,675.414h-10.987c-52.092,0-87.906-29.301-87.906-69.592,0-39.069,28.487-68.777,109.068-68.777h19.127v-2.849c0-30.93-14.651-40.291-47.209-40.291-39.476,0-61.454,15.059-69.592,25.232h-2.035v-17.5c0-24.417,21.976-53.72,79.766-53.72,48.837,0,92.79,22.79,92.79,98.487v50.465c0,46.395-34.185,78.545-83.022,78.545Zm29.709-99.301h-19.534c-41.511,0-53.314,9.767-53.314,27.674,0,17.094,13.837,27.267,37.849,27.267,23.604,0,34.998-11.395,34.998-33.779v-21.162Z" style="fill:#fff;"/><path d="M1420.349,671.752c-24.417,0-39.882-15.465-39.882-35.814v-87.092c0-37.033-16.279-53.312-44.36-53.312-23.605,0-39.884,17.906-39.884,49.244v126.974h-16.279c-23.197,0-38.255-15.465-38.255-35.814v-94.825c0-46.393,30.522-94.01,98.893-94.01,51.685,0,94.417,34.592,94.417,96.858v127.789h-14.651Z" style="fill:#fff;"/></g><path d="M236.973,482.31c-9.508-10.497-14.426-23.67-14.399-36.94-.027-13.271,4.891-26.443,14.399-36.94l95.335-95.335c21.504-21.504,21.504-56.369,0-77.873-21.504-21.504-56.369-21.504-77.873,0L84.298,405.361c-.375,.355-.813,.597-1.182,.965-10.779,10.78-16.144,24.916-16.116,39.045-.028,14.128,5.337,28.265,16.116,39.044,.368,.368,.806,.61,1.182,.965l170.138,170.138c21.504,21.504,56.369,21.504,77.873,0,21.504-21.504,21.504-56.369,0-77.873l-95.335-95.335Z" style="fill:#fff;"/><path d="M360.417,319.826c9.508-10.497,14.425-23.671,14.399-36.941,.026-13.27-4.891-26.443-14.399-36.94l-95.335-95.335c-21.504-21.504-21.504-56.368,0-77.872,21.504-21.504,56.368-21.504,77.872,0l170.138,170.137c.375,.356,.814,.598,1.182,.965,10.78,10.78,16.145,24.916,16.117,39.044,.028,14.128-5.337,28.265-16.117,39.045-.367,.367-.806,.61-1.182,.965l-170.138,170.137c-21.504,21.504-56.368,21.504-77.872,0s-21.504-56.368,0-77.872l95.335-95.335Z" style="fill:#fff;"/></svg>