<?xml version="1.0" encoding="UTF-8"?><svg id="Layer_1" xmlns="http://www.w3.org/2000/svg" viewBox="0 0 1500 717"><defs><style>.cls-1{fill:#fff;}</style></defs><g><path class="cls-1" d="M647.76,338.49c-57.79,0-102.15-50.46-102.15-110.7,0-72.03,35-118.84,98.89-118.84,21.98,0,45.99,15.46,54.53,34.59V40.59h16.68c26.05,0,37.44,15.06,37.44,37.03V232.27c0,63.89-30.11,106.22-105.4,106.22Zm-2.85-183.54c-27.67,0-45.58,26.86-45.58,62.27,0,45.58,23.6,75.29,54.94,75.29s43.95-22.79,43.95-62.67c0-54.94-24.01-74.88-53.31-74.88Z"/><path class="cls-1" d="M888.28,247.33h-35.81c4.07,27.67,29.3,45.17,61.45,45.17,22.79,0,49.65-4.48,67.15-20.76h2.04v17.09c0,28.08-19.13,49.65-79.36,49.65-54.53,0-107.85-43.14-107.85-110.29,0-73.25,44.77-119.24,107.44-119.24,45.58,0,87.91,32.56,87.91,85.06,0,40.29-30.52,53.31-102.96,53.31Zm10.18-92.79c-26.45,0-44.77,21.57-45.99,46.8l-.41,7.33h24.42c51.68,0,63.49-5.7,63.49-21.16,0-21.98-16.28-32.96-41.51-32.96Z"/><path class="cls-1" d="M1192.29,209.48c-14.65,40.29-39.07,93.2-63.49,126.57h-10.58c-16.28,0-24.82-5.7-35.81-21.98-29.71-45.17-67.15-140.81-72.03-200.23h29.3c18.72,0,30.52,14.24,32.56,26.05,7.73,40.7,18.72,83.02,41.92,128.2,20.75-41.1,39.88-99.3,48.02-154.24h23.2c18.72,0,25.64,8.14,25.64,26.05,0,6.51-5.29,32.96-18.72,69.59Z"/></g><g><path class="cls-1" d="M551.89,671.75h-107.03c-25.23,0-37.44-11.8-37.44-28.89s12.62-37.85,33.37-60.23l55.35-60.23c6.51-7.33,15.06-17.5,18.72-24.82h-107.85v-16.69c0-16.28,11.8-28.89,36.22-28.89h99.71c25.64,0,34.19,15.46,34.19,28.08,0,17.09-8.95,37.44-28.08,58.2l-54.94,59.42c-7.73,8.55-15.87,18.31-20.76,27.27h106.63v21.16c0,13.43-14.24,25.64-28.08,25.64Z"/><path class="cls-1" d="M656.48,436.52c-17.5,0-31.74-14.65-31.74-32.15s14.25-31.74,31.74-31.74,32.15,14.24,32.15,31.74-14.65,32.15-32.15,32.15Zm38.66,237.26c-42.32,0-65.52-24.01-65.52-68.37v-148.54h15.46c24.42,0,39.07,13.02,39.07,40.7v102.56c0,21.98,9.36,28.89,33.37,28.89h10.18v11.8c0,23.6-9.36,32.96-32.56,32.96Z"/><path class="cls-1" d="M829.84,673.79c-45.17,0-69.59-24.01-69.59-68.37v-226.68h15.46c27.27,0,39.07,15.87,39.07,36.63v184.76c0,21.98,11.39,28.89,37.03,28.89h14.65v11.8c0,23.6-12.62,32.96-36.63,32.96Z"/><path class="cls-1" d="M924.66,436.52c-17.5,0-31.74-14.65-31.74-32.15s14.25-31.74,31.74-31.74,32.15,14.24,32.15,31.74-14.65,32.15-32.15,32.15Zm38.66,237.26c-42.32,0-65.52-24.01-65.52-68.37v-148.54h15.46c24.42,0,39.07,13.02,39.07,40.7v102.56c0,21.98,9.36,28.89,33.37,28.89h10.18v11.8c0,23.6-9.36,32.96-32.56,32.96Z"/><path class="cls-1" d="M1115.53,675.41h-10.99c-52.09,0-87.91-29.3-87.91-69.59s28.49-68.78,109.07-68.78h19.13v-2.85c0-30.93-14.65-40.29-47.21-40.29-39.48,0-61.45,15.06-69.59,25.23h-2.04v-17.5c0-24.42,21.98-53.72,79.77-53.72,48.84,0,92.79,22.79,92.79,98.49v50.46c0,46.39-34.18,78.54-83.02,78.54Zm29.71-99.3h-19.53c-41.51,0-53.31,9.77-53.31,27.67s13.84,27.27,37.85,27.27,35-11.39,35-33.78v-21.16Z"/><path class="cls-1" d="M1420.35,671.75c-24.42,0-39.88-15.46-39.88-35.81v-87.09c0-37.03-16.28-53.31-44.36-53.31-23.6,0-39.88,17.91-39.88,49.24v126.97h-16.28c-23.2,0-38.25-15.46-38.25-35.81v-94.82c0-46.39,30.52-94.01,98.89-94.01,51.68,0,94.42,34.59,94.42,96.86v127.79h-14.65Z"/></g><path class="cls-1" d="M236.97,482.31c-9.51-10.5-14.43-23.67-14.4-36.94-.03-13.27,4.89-26.44,14.4-36.94l95.34-95.33c21.5-21.5,21.5-56.37,0-77.87-21.5-21.5-56.37-21.5-77.87,0L84.3,405.36c-.38,.36-.81,.6-1.18,.96-10.78,10.78-16.14,24.92-16.12,39.04-.03,14.13,5.34,28.26,16.12,39.04,.37,.37,.81,.61,1.18,.97l170.14,170.14c21.5,21.5,56.37,21.5,77.87,0,21.5-21.5,21.5-56.37,0-77.87l-95.33-95.33Z"/><path class="cls-1" d="M360.42,319.83c9.51-10.5,14.42-23.67,14.4-36.94,.03-13.27-4.89-26.44-14.4-36.94l-95.34-95.34c-21.5-21.5-21.5-56.37,0-77.87,21.5-21.5,56.37-21.5,77.87,0l170.14,170.14c.38,.36,.81,.6,1.18,.97,10.78,10.78,16.15,24.92,16.12,39.04,.03,14.13-5.34,28.26-16.12,39.04-.37,.37-.81,.61-1.18,.97l-170.14,170.14c-21.5,21.5-56.37,21.5-77.87,0s-21.5-56.37,0-77.87l95.34-95.34Z"/></svg>