<?xml version="1.0" encoding="UTF-8"?><svg id="Layer_1" xmlns="http://www.w3.org/2000/svg" width="126" height="44" viewBox="0 0 512 146"><path d="M476.713,60.463c-.461,.092-.922,1.108-.922,1.661-.092,3.691-.185,13.473-.185,20.117,0,.185,.276,.553,.553,.553,1.384,.092,4.706,.185,7.567,.185,3.968,0,6.275-.553,7.568-1.107,3.322-1.661,4.89-5.261,4.89-9.229,0-8.951-6.275-12.366-15.596-12.366-.646-.092-2.491-.092-3.876,.185h0Zm23.809,41.25c0-9.136-6.737-14.212-18.918-14.212-.553,0-4.429-.092-5.352,.092-.277,.092-.646,.277-.646,.554,0,6.552-.092,16.98,.185,21.039,.184,1.754,1.476,4.245,3.045,4.984,1.66,.923,5.445,1.107,8.028,1.107,7.291,0,13.658-4.06,13.658-13.565h0Zm-42.634-46.325c.922,0,3.691,.276,10.797,.276,6.736,0,12.089-.184,18.641-.184,8.028,0,19.102,2.86,19.102,14.857,0,5.907-4.153,10.613-9.598,12.92-.276,.092-.276,.276,0,.369,7.752,1.938,14.581,6.737,14.581,15.78,0,8.859-5.537,14.488-13.566,17.995-4.891,2.122-10.982,2.86-17.165,2.86-4.706,0-17.348-.553-24.362-.369-.738-.277,.646-3.6,1.292-4.153,1.661-.092,2.953-.185,4.706-.738,2.492-.646,2.768-1.384,3.138-5.167,.185-3.23,.185-14.674,.185-22.794,0-11.166,.092-18.733,0-22.424-.092-2.86-1.108-3.783-3.138-4.338-1.569-.276-4.153-.646-6.275-.922-.462-.462,1.107-3.6,1.661-3.968h0Zm-53.247,57.399c2.216,1.753,6.552,2.491,10.428,2.491,4.984,0,9.966-.922,14.765-5.26,4.891-4.429,8.305-11.258,8.305-22.147,0-10.428-3.968-18.918-12.089-23.901-4.614-2.861-10.521-4.061-17.349-4.061-2.03,0-3.968,.092-5.167,.646-.277,.185-.923,1.015-.923,1.476-.185,1.846-.185,16.057-.185,24.363,0,8.582,0,20.578,.185,21.962,0,1.385,.646,3.507,2.03,4.43h0Zm-20.948-57.399c1.754,0,8.49,.276,11.72,.276,5.814,0,9.966-.276,20.948-.276,9.228,0,16.98,2.492,22.517,7.197,6.736,5.814,10.243,13.843,10.243,23.625,0,13.935-6.368,21.963-12.735,26.577-6.367,4.706-14.673,7.475-26.484,7.475-6.275,0-17.072-.185-26.024-.277h-.092c-.461-.83,.738-4.06,1.476-4.152,2.399-.277,3.045-.37,4.245-.831,1.938-.738,2.307-1.754,2.584-5.167,.276-6.368,.184-14.027,.184-22.702,0-6.183,.092-18.272-.092-22.148-.276-3.229-1.66-4.06-4.429-4.614-1.384-.276-3.23-.646-5.813-.922-.37-.647,1.292-3.507,1.753-4.061h0Z" style="fill:#000000; fill-rule:evenodd;"/><path d="M272.033,116.385c-2.307-.277-3.968-.646-5.999-1.569-.276-.185-.738-1.107-.738-1.476-.185-3.23-.185-12.458-.185-18.641,0-4.984-.83-9.32-2.953-12.366-2.492-3.507-6.09-5.537-10.705-5.537-4.061,0-9.505,2.769-14.027,6.645-.092,.092-.831,.738-.738-.277,0-1.015,.185-3.045,.277-4.429,.092-1.293-.646-1.938-.646-1.938-2.954,1.476-11.259,3.415-14.304,3.691-2.215,.462-2.768,2.584-.461,3.322h.092c2.491,.738,4.152,1.569,5.444,2.399,.923,.738,.831,1.754,.831,2.584,.092,6.921,.092,17.533-.184,23.347-.092,2.307-.738,3.137-2.399,3.506l.184-.092c-1.292,.277-2.307,.553-3.876,.738-.553,.553-.553,3.507,0,4.153,1.015,0,6.368-.277,10.798-.277,6.09,0,9.228,.277,10.797,.277,.646-.738,.831-3.507,.461-4.153-1.754-.092-3.045-.276-4.245-.646-1.661-.37-2.123-1.199-2.215-3.138-.184-4.891-.184-15.226-.184-22.24,0-1.938,.553-2.861,1.107-3.415,2.122-1.845,5.537-3.138,8.582-3.138,2.953,0,4.891,.923,6.368,2.123,2.03,1.66,2.676,4.06,2.953,5.813,.461,3.968,.277,11.812,.277,18.641,0,3.691-.277,4.614-1.661,5.075-.646,.277-2.307,.647-4.245,.831-.646,.646-.461,3.507,0,4.153,2.677,0,5.814-.277,10.428-.277,5.721,0,9.413,.277,10.889,.277,.461-.553,.646-3.23,.276-3.968h0Zm25.562-35.251c-4.891,0-7.936,3.783-7.936,9.689,0,5.998,2.676,12.919,10.243,12.919,1.292,0,3.691-.553,4.798-1.845,1.754-1.661,2.954-4.984,2.954-8.49,0-7.659-3.784-12.273-10.059-12.273h0Zm-.647,40.788c-1.845,0-3.138,.553-3.967,1.015-3.877,2.491-5.629,4.89-5.629,7.752,0,2.676,1.014,4.798,3.23,6.644,2.676,2.307,6.367,3.415,11.073,3.415,9.413,0,13.566-5.076,13.566-10.059,0-3.507-1.754-5.814-5.352-7.106-2.584-1.108-7.291-1.661-12.92-1.661h0Zm.647,23.993c-5.629,0-9.69-1.2-13.196-3.876-3.415-2.584-4.891-6.46-4.891-9.136,0-.738,.185-2.769,1.846-4.614,1.014-1.108,3.229-3.23,8.49-6.829,.184-.092,.276-.185,.276-.37s-.185-.37-.369-.461c-4.338-1.661-5.629-4.338-5.999-5.814v-.185c-.092-.553-.276-1.107,.554-1.661,.646-.461,1.569-1.014,2.583-1.66,1.569-.923,3.23-1.938,4.245-2.769,.185-.185,.185-.369,.185-.553s-.185-.37-.37-.461c-6.459-2.123-9.689-6.922-9.689-14.119,0-4.706,2.122-8.952,5.906-11.627,2.584-2.031,9.043-4.522,13.289-4.522h.277c4.337,.092,6.736,1.015,10.15,2.215,1.846,.646,3.6,.922,5.999,.922,3.599,0,5.167-1.107,6.459-2.399,.092,.184,.277,.646,.37,1.845,.092,1.2-.277,2.953-1.2,4.245-.738,1.015-2.399,1.754-4.06,1.754h-.462c-1.661-.185-2.399-.37-2.399-.37l-.369,.185c-.092,.185,0,.369,.092,.646l.092,.185c.184,.831,.553,3.322,.553,3.968,0,7.567-3.045,10.888-6.275,13.38-3.138,2.307-6.736,3.783-10.797,4.153-.092,0-.461,0-1.292,.092-.462,0-1.108,.092-1.2,.092h-.092c-.738,.184-2.583,1.107-2.583,2.676,0,1.384,.831,3.045,4.798,3.322,.831,.092,1.661,.092,2.584,.185,5.26,.369,11.812,.831,14.858,1.845,4.245,1.569,6.921,5.352,6.921,9.875,0,6.829-4.891,13.196-13.012,17.164-3.968,1.754-7.936,2.677-12.273,2.677h0Zm52.6-64.32c-1.938,0-3.692,.461-4.984,1.384-3.599,2.215-5.445,6.645-5.445,13.104,0,12.089,6.09,20.579,14.765,20.579,2.584,0,4.614-.738,6.368-2.215,2.676-2.215,4.061-6.645,4.061-12.828,0-11.996-5.999-20.025-14.765-20.025h0Zm1.661,39.497c-15.688,0-21.318-11.535-21.318-22.332,0-7.567,3.045-13.381,9.136-17.534,4.338-2.676,9.505-4.152,14.119-4.152,11.996,0,20.395,8.582,20.395,20.948,0,8.397-3.322,15.041-9.69,19.102-3.045,2.03-8.305,3.968-12.643,3.968h0Zm-164.446-39.497c-1.938,0-3.691,.461-4.984,1.384-3.599,2.215-5.445,6.645-5.445,13.104,0,12.089,6.09,20.579,14.765,20.579,2.584,0,4.614-.738,6.368-2.215,2.676-2.215,4.061-6.645,4.061-12.828,0-11.996-5.907-20.025-14.765-20.025h0Zm1.661,39.497c-15.688,0-21.318-11.535-21.318-22.332,0-7.567,3.045-13.381,9.136-17.534,4.338-2.676,9.505-4.152,14.119-4.152,11.997,0,20.395,8.582,20.395,20.948,0,8.397-3.322,15.041-9.69,19.102-2.953,2.03-8.213,3.968-12.642,3.968h0Zm-105.478-.923c-.185-.276-.37-1.107-.277-2.122,0-.738,.185-1.2,.277-1.384,1.937-.277,2.953-.554,4.06-.831,1.846-.462,2.584-1.476,2.677-3.783,.277-5.537,.277-16.058,.185-23.347v-.185c0-.831,0-1.846-1.015-2.584-1.476-.922-3.23-1.753-5.537-2.399-.831-.276-1.384-.738-1.292-1.292,0-.553,.553-1.199,1.754-1.384,3.045-.277,10.981-2.215,14.118-3.599,.185,.184,.462,.738,.462,1.476l-.092,1.015c-.092,1.015-.185,2.215-.185,3.415,0,.369,.37,.646,.738,.646,.185,0,.37-.092,.554-.185,5.906-4.614,11.258-6.275,14.026-6.275,4.523,0,8.029,2.123,10.705,6.552,.184,.277,.369,.369,.646,.369,.185,0,.461-.092,.553-.276,5.445-4.153,10.889-6.645,14.488-6.645,8.582,0,13.658,6.368,13.658,17.165,0,3.045,0,7.013-.092,10.613,0,3.229-.092,6.183-.092,8.305,0,.461,.646,1.937,1.661,2.215,1.292,.646,3.045,.923,5.352,1.292h.092c.185,.646-.185,3.045-.553,3.507-.554,0-1.385,0-2.307-.092-1.754-.092-4.245-.185-7.013-.185-5.722,0-8.675,.092-11.536,.277-.184-.738-.276-2.953,0-3.507,1.661-.276,2.492-.553,3.507-.831,1.846-.553,2.307-1.384,2.399-3.783,0-1.753,.369-16.703-.185-20.302-.553-3.691-3.322-8.028-9.413-8.028-2.307,0-5.906,.923-9.413,3.599-.184,.185-.369,.646-.369,.923v.092c.369,1.937,.369,4.153,.369,7.567v5.998c0,4.153-.092,8.029,0,10.982,0,2.031,1.2,2.492,2.215,2.861,.553,.092,.922,.184,1.384,.276,.831,.185,1.661,.37,2.953,.646,.185,.37,.185,1.569-.092,2.584-.092,.553-.277,.831-.369,.923-3.138-.092-6.368-.185-11.074-.185-1.384,0-3.783,.092-5.814,.092-1.661,0-3.23,.092-4.152,.092-.092-.185-.277-.831-.277-1.846,0-.831,.185-1.476,.37-1.661,.461-.092,.83-.184,1.292-.184,1.107-.185,2.03-.37,2.953-.554,1.569-.461,2.122-1.292,2.215-3.322,.277-4.614,.553-17.81-.092-21.133-1.107-5.352-4.152-8.029-9.043-8.029-2.86,0-6.46,1.384-9.413,3.6-.461,.369-.831,1.292-.831,2.122v5.445c0,6.644,0,14.95,.092,18.549,.092,1.107,.461,2.399,2.584,2.86,.461,.092,1.199,.277,2.122,.37l1.661,.276c.185,.554,.092,2.769-.277,3.507-.923,0-2.03-.092-3.322-.092-1.937-.092-4.429-.185-7.197-.185-3.23,0-5.537,.092-7.383,.185-1.292-.185-2.307-.185-3.414-.185h0Z" style="fill:#00000; fill-rule:evenodd;"/><g><path d="M35.053,142.317l-3.783-1.293s.462-19.287-6.459-20.671c-4.614-5.352,.738-227.013,17.348-.738,0,0-5.721,2.86-6.736,7.752-1.108,4.799-.37,14.95-.37,14.95h0Z" style="fill:#00000; fill-rule:evenodd;"/><path d="M35.053,142.317l-3.783-1.293s.462-19.287-6.459-20.671c-4.614-5.352,.738-227.013,17.348-.738,0,0-5.721,2.86-6.736,7.752-1.108,4.799-.37,14.95-.37,14.95h0Z" style="fill:#00000; fill-rule:evenodd;"/><path d="M37.084,123.676s33.129-21.779,25.377-67.089C54.987,23.643,37.36,12.846,35.423,8.693c-2.122-2.953-4.153-8.12-4.153-8.12l1.385,91.635c0,.092-2.861,28.054,4.429,31.469" style="fill:#00000; fill-rule:evenodd;"/><path d="M37.084,123.676s33.129-21.779,25.377-67.089C54.987,23.643,37.36,12.846,35.423,8.693c-2.122-2.953-4.153-8.12-4.153-8.12l1.385,91.635c0,.092-2.861,28.054,4.429,31.469" style="fill:#00000; fill-rule:evenodd;"/><path d="M29.333,124.875S-1.767,103.65,.079,66.277C1.832,28.903,23.795,10.539,28.04,7.216c2.769-2.953,2.861-4.061,3.046-7.013,1.937,4.153,1.569,62.106,1.845,68.934,.831,26.3-1.476,50.755-3.599,55.738h0Z" style="fill:#000000; fill-rule:evenodd;"/><path d="M29.333,124.875S-1.767,103.65,.079,66.277C1.832,28.903,23.795,10.539,28.04,7.216c2.769-2.953,2.861-4.061,3.046-7.013,1.937,4.153,1.569,62.106,1.845,68.934,.831,26.3-1.476,50.755-3.599,55.738h0Z" style="fill:#00000; fill-rule:evenodd;"/></g></svg>