<?xml version="1.0" encoding="UTF-8"?><svg id="Layer_1" xmlns="http://www.w3.org/2000/svg" viewBox="0 0 1000 1000"><path d="M500,259.555c-106.864,0-173.655,53.432-200.371,160.297,40.074-53.432,86.827-73.469,140.26-60.111,30.486,7.622,52.276,29.738,76.395,54.22,39.291,39.881,84.764,86.039,184.087,86.039,106.864,0,173.655-53.432,200.371-160.297-40.074,53.432-86.827,73.469-140.26,60.111-30.486-7.622-52.276-29.738-76.395-54.22-39.291-39.881-84.764-86.039-184.087-86.039Zm-200.371,240.445c-106.864,0-173.655,53.432-200.371,160.297,40.074-53.432,86.827-73.469,140.26-60.111,30.486,7.621,52.276,29.738,76.395,54.22,39.29,39.881,84.764,86.039,184.087,86.039,106.864,0,173.655-53.432,200.371-160.297-40.074,53.432-86.827,73.469-140.26,60.111-30.486-7.622-52.276-29.738-76.395-54.22-39.29-39.881-84.764-86.039-184.087-86.039Z" style="fill:#fff;"/><rect width="1000" height="1000" style="fill:none;"/></svg>