<svg xmlns="http://www.w3.org/2000/svg" fill="#2564e2" width="70" height="44" viewBox="0 0 512 412"><path d="M253,0c-67.467,0-109.633,33.733-126.5,101.2,25.3-33.733,54.817-46.383,88.55-37.95,19.247,4.812,33.003,18.774,48.23,34.231,24.805,25.178,53.514,54.319,116.22,54.319,67.467,0,109.633-33.733,126.5-101.2-25.3,33.733-54.817,46.383-88.55,37.95-19.247-4.812-33.003-18.774-48.23-34.231C344.415,29.141,315.706,0,253,0ZM126.5,151.8c-67.467,0-109.633,33.733-126.5,101.2,25.3-33.733,54.817-46.383,88.55-37.95,19.247,4.812,33.003,18.774,48.23,34.231,24.805,25.178,53.514,54.319,116.22,54.319,67.467,0,109.633-33.733,126.5-101.2-25.3,33.733-54.817,46.383-88.55,37.95-19.247-4.812-33.003-18.774-48.23-34.231-24.805-25.178-53.514-54.319-116.22-54.319Z"/></svg>